<?xml version="1.0" encoding="UTF-8" standalone="no"?>
<!DOCTYPE svg PUBLIC "-//W3C//DTD SVG 1.1//EN"
 "http://www.w3.org/Graphics/SVG/1.1/DTD/svg11.dtd">
<!-- Generated by graphviz version 2.47.0 (20210316.0004)
 -->
<!-- Title: dependencies Pages: 1 -->
<svg width="1037pt" height="211pt"
 viewBox="0.00 0.00 1037.00 211.00" xmlns="http://www.w3.org/2000/svg" xmlns:xlink="http://www.w3.org/1999/xlink">
<g id="graph0" class="graph" transform="scale(1 1) rotate(0) translate(4 207)">
<title>dependencies</title>
<polygon fill="white" stroke="transparent" points="-4,4 -4,-207 1033,-207 1033,4 -4,4"/>
<text text-anchor="start" x="493.51" y="-42.4" font-family="Times-12" font-weight="bold" font-size="14.00">Legend</text>
<polygon fill="#ffffb3" stroke="transparent" points="280.5,-10 280.5,-30 300.5,-30 300.5,-10 280.5,-10"/>
<text text-anchor="start" x="304.13" y="-15.4" font-family="Times-12" font-size="14.00"> &#160;Declarations</text>
<polygon fill="#8dd3c7" stroke="transparent" points="393.5,-10 393.5,-30 413.5,-30 413.5,-10 393.5,-10"/>
<text text-anchor="start" x="417.23" y="-15.4" font-family="Times-12" font-size="14.00"> &#160;Module</text>
<polygon fill="#80b1d3" stroke="transparent" points="479.5,-10 479.5,-30 499.5,-30 499.5,-10 479.5,-10"/>
<text text-anchor="start" x="503.28" y="-15.4" font-family="Times-12" font-size="14.00"> &#160;Bootstrap</text>
<polygon fill="#fdb462" stroke="transparent" points="576.5,-10 576.5,-30 596.5,-30 596.5,-10 576.5,-10"/>
<text text-anchor="start" x="600.17" y="-15.4" font-family="Times-12" font-size="14.00"> &#160;Providers</text>
<polygon fill="#fb8072" stroke="transparent" points="672.5,-10 672.5,-30 692.5,-30 692.5,-10 672.5,-10"/>
<text text-anchor="start" x="696.23" y="-15.4" font-family="Times-12" font-size="14.00"> &#160;Exports</text>
<g id="clust1" class="cluster">
<title>cluster_AppModule</title>
<polygon fill="none" stroke="black" stroke-dasharray="1,5" points="8,-70 8,-195 1021,-195 1021,-70 8,-70"/>
</g>
<g id="clust6" class="cluster">
<title>cluster_AppModule_providers</title>
<polygon fill="none" stroke="black" points="590,-78 590,-130 1013,-130 1013,-78 590,-78"/>
</g>
<g id="clust3" class="cluster">
<title>cluster_AppModule_imports</title>
<polygon fill="none" stroke="black" points="16,-78 16,-130 582,-130 582,-78 16,-78"/>
</g>
<!-- AuthModule -->
<g id="node1" class="node">
<title>AuthModule</title>
<polygon fill="#8dd3c7" stroke="black" points="573.55,-122 570.55,-126 549.55,-126 546.55,-122 486.45,-122 486.45,-86 573.55,-86 573.55,-122"/>
<text text-anchor="middle" x="530" y="-99.8" font-family="Times,serif" font-size="14.00">AuthModule</text>
</g>
<!-- AppModule -->
<g id="node6" class="node">
<title>AppModule</title>
<polygon fill="#8dd3c7" stroke="black" points="514.66,-187 511.66,-191 490.66,-191 487.66,-187 431.34,-187 431.34,-151 514.66,-151 514.66,-187"/>
<text text-anchor="middle" x="473" y="-164.8" font-family="Times,serif" font-size="14.00">AppModule</text>
</g>
<!-- AuthModule&#45;&gt;AppModule -->
<g id="edge1" class="edge">
<title>AuthModule&#45;&gt;AppModule</title>
<path fill="none" stroke="black" d="M500.53,-122.11C500.53,-122.11 500.53,-140.99 500.53,-140.99"/>
<polygon fill="black" stroke="black" points="497.03,-140.99 500.53,-150.99 504.03,-140.99 497.03,-140.99"/>
</g>
<!-- AuthorsModule -->
<g id="node2" class="node">
<title>AuthorsModule</title>
<polygon fill="#8dd3c7" stroke="black" points="468.15,-122 465.15,-126 444.15,-126 441.15,-122 363.85,-122 363.85,-86 468.15,-86 468.15,-122"/>
<text text-anchor="middle" x="416" y="-99.8" font-family="Times,serif" font-size="14.00">AuthorsModule</text>
</g>
<!-- AuthorsModule&#45;&gt;AppModule -->
<g id="edge2" class="edge">
<title>AuthorsModule&#45;&gt;AppModule</title>
<path fill="none" stroke="black" d="M449.75,-122.11C449.75,-122.11 449.75,-140.99 449.75,-140.99"/>
<polygon fill="black" stroke="black" points="446.25,-140.99 449.75,-150.99 453.25,-140.99 446.25,-140.99"/>
</g>
<!-- BooksModule -->
<g id="node3" class="node">
<title>BooksModule</title>
<polygon fill="#8dd3c7" stroke="black" points="345.83,-122 342.83,-126 321.83,-126 318.83,-122 250.17,-122 250.17,-86 345.83,-86 345.83,-122"/>
<text text-anchor="middle" x="298" y="-99.8" font-family="Times,serif" font-size="14.00">BooksModule</text>
</g>
<!-- BooksModule&#45;&gt;AppModule -->
<g id="edge3" class="edge">
<title>BooksModule&#45;&gt;AppModule</title>
<path fill="none" stroke="black" d="M298,-122.03C298,-138.4 298,-160 298,-160 298,-160 421.08,-160 421.08,-160"/>
<polygon fill="black" stroke="black" points="421.08,-163.5 431.08,-160 421.08,-156.5 421.08,-163.5"/>
</g>
<!-- PrismaModule -->
<g id="node4" class="node">
<title>PrismaModule</title>
<polygon fill="#8dd3c7" stroke="black" points="232.43,-122 229.43,-126 208.43,-126 205.43,-122 133.57,-122 133.57,-86 232.43,-86 232.43,-122"/>
<text text-anchor="middle" x="183" y="-99.8" font-family="Times,serif" font-size="14.00">PrismaModule</text>
</g>
<!-- PrismaModule&#45;&gt;AppModule -->
<g id="edge4" class="edge">
<title>PrismaModule&#45;&gt;AppModule</title>
<path fill="none" stroke="black" d="M183,-122.11C183,-141.34 183,-169 183,-169 183,-169 421.14,-169 421.14,-169"/>
<polygon fill="black" stroke="black" points="421.14,-172.5 431.14,-169 421.14,-165.5 421.14,-172.5"/>
</g>
<!-- UsersModule -->
<g id="node5" class="node">
<title>UsersModule</title>
<polygon fill="#8dd3c7" stroke="black" points="115.92,-122 112.92,-126 91.92,-126 88.92,-122 24.08,-122 24.08,-86 115.92,-86 115.92,-122"/>
<text text-anchor="middle" x="70" y="-99.8" font-family="Times,serif" font-size="14.00">UsersModule</text>
</g>
<!-- UsersModule&#45;&gt;AppModule -->
<g id="edge5" class="edge">
<title>UsersModule&#45;&gt;AppModule</title>
<path fill="none" stroke="black" d="M70,-122.29C70,-144.21 70,-178 70,-178 70,-178 421.01,-178 421.01,-178"/>
<polygon fill="black" stroke="black" points="421.01,-181.5 431.01,-178 421.01,-174.5 421.01,-181.5"/>
</g>
<!-- AppService -->
<g id="node7" class="node">
<title>AppService</title>
<ellipse fill="#fdb462" stroke="black" cx="948" cy="-104" rx="56.74" ry="18"/>
<text text-anchor="middle" x="948" y="-99.8" font-family="Times,serif" font-size="14.00">AppService</text>
</g>
<!-- AppService&#45;&gt;AppModule -->
<g id="edge6" class="edge">
<title>AppService&#45;&gt;AppModule</title>
<path fill="none" stroke="black" d="M948,-122.29C948,-144.21 948,-178 948,-178 948,-178 524.74,-178 524.74,-178"/>
<polygon fill="black" stroke="black" points="524.74,-174.5 514.74,-178 524.74,-181.5 524.74,-174.5"/>
</g>
<!-- PrismaService -->
<g id="node8" class="node">
<title>PrismaService</title>
<ellipse fill="#fdb462" stroke="black" cx="807" cy="-104" rx="66.63" ry="18"/>
<text text-anchor="middle" x="807" y="-99.8" font-family="Times,serif" font-size="14.00">PrismaService</text>
</g>
<!-- PrismaService&#45;&gt;AppModule -->
<g id="edge7" class="edge">
<title>PrismaService&#45;&gt;AppModule</title>
<path fill="none" stroke="black" d="M807,-122.11C807,-141.34 807,-169 807,-169 807,-169 524.96,-169 524.96,-169"/>
<polygon fill="black" stroke="black" points="524.96,-165.5 514.96,-169 524.96,-172.5 524.96,-165.5"/>
</g>
<!-- UsersService -->
<g id="node9" class="node">
<title>UsersService</title>
<ellipse fill="#fdb462" stroke="black" cx="660" cy="-104" rx="61.95" ry="18"/>
<text text-anchor="middle" x="660" y="-99.8" font-family="Times,serif" font-size="14.00">UsersService</text>
</g>
<!-- UsersService&#45;&gt;AppModule -->
<g id="edge8" class="edge">
<title>UsersService&#45;&gt;AppModule</title>
<path fill="none" stroke="black" d="M660,-122.03C660,-138.4 660,-160 660,-160 660,-160 524.97,-160 524.97,-160"/>
<polygon fill="black" stroke="black" points="524.97,-156.5 514.97,-160 524.97,-163.5 524.97,-156.5"/>
</g>
</g>
</svg>
